<?xml version="1.0" encoding="UTF-8" standalone="no"?>
<!-- Created with Inkscape (http://www.inkscape.org/) -->

<svg
   width="512"
   height="512"
   viewBox="0 0 512 512"
   version="1.1"
   id="svg1"
   inkscape:version="1.3 (0e150ed6c4, 2023-07-21)"
   sodipodi:docname="footbalizakwadrat.svg"
   xmlns:inkscape="http://www.inkscape.org/namespaces/inkscape"
   xmlns:sodipodi="http://sodipodi.sourceforge.net/DTD/sodipodi-0.dtd"
   xmlns="http://www.w3.org/2000/svg"
   xmlns:svg="http://www.w3.org/2000/svg">
  <sodipodi:namedview
     id="namedview1"
     pagecolor="#ffffff"
     bordercolor="#000000"
     borderopacity="0.25"
     inkscape:showpageshadow="2"
     inkscape:pageopacity="0.0"
     inkscape:pagecheckerboard="0"
     inkscape:deskcolor="#d1d1d1"
     inkscape:document-units="px"
     inkscape:zoom="2.2402344"
     inkscape:cx="249.52746"
     inkscape:cy="225.19965"
     inkscape:window-width="2560"
     inkscape:window-height="1361"
     inkscape:window-x="-9"
     inkscape:window-y="-9"
     inkscape:window-maximized="1"
     inkscape:current-layer="layer1" />
  <defs
     id="defs1">
    <rect
       x="78"
       y="838"
       width="719.36316"
       height="143.2037"
       id="rect59" />
  </defs>
  <g
     inkscape:label="Warstwa 1"
     inkscape:groupmode="layer"
     id="layer1">
    <g
       stroke-width="2"
       fill="none"
       stroke-linecap="butt"
       id="g38"
       transform="matrix(0.49999999,0,0,0.49999999,0,-45.128476)">
      <path
         stroke="#727881"
         vector-effect="non-scaling-stroke"
         d="m 320.34,767.24 q 32.22,0.42 64.16,0.36 1.96,-0.01 2.81,0.83 32.44,31.71 78.2,25.02 7.4,-1.08 14.74,-2.46 1.59,-0.29 3.05,0.39 c 67.13,31.58 143.22,35.34 213.54,12.37 q 2.83,-0.93 5.63,-1.96"
         id="path1" />
      <path
         stroke="#8c8d93"
         vector-effect="non-scaling-stroke"
         d="m 702.47,801.79 c 36.11,-12.31 70.18,-32.6 96.03,-60.55 1.86,-2.01 4.7,-1.34 6.78,-1.76 24.77,-4.94 38.81,-19.82 49.64,-41.79 q 27.86,-56.52 34.41,-118.44 4.39,-41.53 0.73,-89.27 -0.79,-10.36 -2.2,-19.88 -6.1,-41.13 -19.49,-80.55 c -1.83,-5.38 -1.6,-11.46 -1.82,-17.05 -1.38,-34.83 -32.11,-63.59 -66.56,-64.35 q -5.44,-0.13 -11.03,-0.34 a 1.42,1.42 0 0 1 -0.89,-0.36 q -13.35,-11.63 -17.9,-15.13 C 716.55,251.03 648.15,231.57 580.5,236.26 c -47.67,3.3 -94.73,20.58 -134.74,47.27 q -10.45,6.97 -20.14,14.29 a 3.96,3.9 26.4 0 1 -2.4,0.79 l -20.53,-0.17 q -0.61,-0.01 -0.65,-0.61 -0.92,-12.71 -10.89,-20.45 -10.27,-7.96 -21.9,-8.21 -20.6,-0.43 -75.5,-0.05 c -18.44,0.12 -32.99,9.87 -36.02,28.58 q -0.09,0.58 -0.68,0.56 -19.07,-0.39 -38.54,-0.16 -25.71,0.29 -45.15,16.74 c -16.65,14.09 -28.29,35.23 -28.3,57.41 q -0.04,149.12 -0.02,298.24 0,16.17 0.37,20.01 c 3.89,40.61 39.59,76.55 81.34,76.75 q 31.02,0.15 93.59,-0.01"
         id="path2" />
      <path
         stroke="#e4e9ec"
         vector-effect="non-scaling-stroke"
         d="m 702.47,801.79 q -0.95,-0.16 -1.62,-1.15 a 1.2,1.2 0 0 0 -0.76,-0.49 c -1.65,-0.31 -3.09,-0.72 -4.79,-0.83 -5.91,-0.41 -12.39,-1.91 -17.43,-2.49 q -9.54,-1.1 -19.1,-2.14 -8.11,-0.88 -16.2,-1.95 c -3.42,-0.46 -6.87,-0.49 -10.32,-0.66 q -1,-0.05 -0.44,-1.05"
         id="path3" />
      <path
         stroke="#8c8d93"
         vector-effect="non-scaling-stroke"
         d="m 631.81,791.03 q 36.47,-4.52 70.67,-17.72 c 26.85,-10.36 51.15,-25.96 72.2,-45.62 q 6.46,-6.03 12.31,-11.77 a 5.01,5.01 0 0 1 2.8,-1.4 q 5.5,-0.81 11.43,-2.03 c 15.72,-3.24 23.78,-13.13 30.68,-26.76 q 19.09,-37.72 27.9,-77.97 c 6.4,-29.17 7.05,-60.41 5.25,-90.12 q -0.04,-0.73 -0.93,-3.34"
         id="path4" />
      <path
         stroke="#e4e9ec"
         vector-effect="non-scaling-stroke"
         d="m 864.12,514.3 -1.73,-24.46"
         id="path5" />
      <path
         stroke="#8c8d93"
         vector-effect="non-scaling-stroke"
         d="m 862.39,489.84 q 10.62,2.87 12.96,-3.92 1.13,-3.3 -0.28,-10.85 C 870.55,451 861.99,427.52 850.97,406.13 q -4.44,-8.61 -8.81,-16.7 a 5.94,5.82 32.1 0 1 -0.7,-2.93 c 0.15,-5.54 0.38,-11.83 -0.53,-16.98 q -3.32,-18.73 -19.9,-29.06 c -10.32,-6.44 -21.7,-6.95 -33.53,-5.69"
         id="path6" />
      <path
         stroke="#e4e9ec"
         vector-effect="non-scaling-stroke"
         d="m 787.5,334.77 -12.44,0.1 a 0.43,0.43 0 0 0 -0.29,0.74 c 10.1,9.69 19.31,19.1 28.67,30.38 q 5.66,6.83 11.5,13.46"
         id="path7" />
      <path
         stroke="#8c8d93"
         vector-effect="non-scaling-stroke"
         d="m 814.94,379.45 14.18,24.23"
         id="path8" />
      <path
         stroke="#e4e9ec"
         vector-effect="non-scaling-stroke"
         d="m 829.12,403.68 q -2.89,2.67 -2.62,7.36 0.25,4.26 0.13,5.43 -1.91,19.6 -6.33,38.8 -0.39,1.68 0.58,3.23 0.64,1.02 -0.11,1.77"
         id="path9" />
      <path
         stroke="#8c8d93"
         vector-effect="non-scaling-stroke"
         d="m 820.77,460.27 q -7.8,-10.93 -15.35,-22.01 c -10.5,-15.44 -21.05,-30.09 -31.67,-45.07 -1,-1.4 -1.44,-4.01 -1.59,-5.73 q -1.57,-18.19 -3.78,-36.32 -0.29,-2.38 -1.78,-4.23 c -11.58,-14.4 -21.27,-29.77 -32.07,-44.69 -2.39,-3.31 -5.11,-5.63 -8.37,-7.62 Q 716.59,288.74 705.34,283.75 640.73,255.1 570.9,263.62 c -28.28,3.45 -56.03,12.41 -81.53,25.08 q -3.86,1.92 -7.53,4.09 -1.54,0.91 -0.27,2.18 2.17,2.16 3.16,5 a 0.76,0.76 0 0 0 0.99,0.46 q 33.4,-13.17 68.59,-20.37 1.28,-0.26 0.49,0.78 -5.44,7.14 -11.1,14.82 -1.34,1.82 -3.95,2.85 -12.64,4.98 -28.13,12.8 -27.81,14.03 -54.15,30.66 c -3.18,2 -6.77,4.13 -10.95,3.63 q -11.13,-1.33 -22.36,-1.1 c -2.65,0.05 -4.08,1.08 -5.84,2.82 q -46.09,45.37 -61.39,108.34 a 1.08,1.08 0 0 1 -1.05,0.83 l -147.59,-0.12"
         id="path10" />
      <path
         stroke="#e4e9ec"
         vector-effect="non-scaling-stroke"
         d="m 208.29,456.37 c -0.15,-16.84 0.17,-33.78 0.04,-50.37 q -0.11,-13.45 -0.09,-26.89 c 0.01,-5.29 -0.73,-8.91 -6.25,-9.98 -4.58,-0.89 -12.66,1.05 -12.88,6.9 q -0.11,2.92 -1.45,4.39"
         id="path11" />
      <path
         stroke="#8c8d93"
         vector-effect="non-scaling-stroke"
         d="m 187.66,380.42 c -1.64,-18.76 9.57,-34.06 27.65,-37.89 5.54,-1.18 12.75,-1.05 18.94,-1.05 q 79.44,-0.01 158.7,0.13 a 3.56,3.55 -66.8 0 0 2.45,-0.98 q 8.47,-8.02 17.19,-15.54 0.64,-0.55 0.63,-1.17 a 0.47,0.47 0 0 0 -0.47,-0.47 l -34.02,0.03 a 1.28,1.28 0 0 1 -1.28,-1.28 q 0.02,-6.25 -0.11,-12.83 c -0.21,-11.58 -4.49,-14.02 -15.9,-14.05 q -31.97,-0.1 -63.94,0.07 c -8.21,0.04 -15.12,2.46 -15.16,12.11 q -0.04,7.87 -0.29,15.29 -0.03,0.78 -0.82,0.77 -29.6,-0.17 -58.48,-0.06 c -5.92,0.03 -12.67,0.21 -19.69,3.29 -17.91,7.88 -32.75,25.95 -32.48,46.22 q 0.14,10.47 -0.06,21.86"
         id="path12" />
      <path
         stroke="#e4e9ec"
         vector-effect="non-scaling-stroke"
         d="m 170.52,394.87 -0.03,61.47"
         id="path13" />
      <path
         stroke="#8c8d93"
         vector-effect="non-scaling-stroke"
         d="m 170.49,456.34 c -0.43,76.13 0.04,152.28 0.27,228.41 0.08,24.56 19.62,48.97 43.37,55.01 q 5.98,1.53 19.87,1.62 c 32.97,0.22 66.03,0.36 99.01,0.1"
         id="path14" />
      <path
         stroke="#e4e9ec"
         vector-effect="non-scaling-stroke"
         d="m 333.01,741.48 q 0.13,0.1 0.24,0.18 0.2,0.15 0.1,0.37 -0.09,0.23 -0.22,0.5 -0.06,0.11 -0.19,0.13 c -1.73,0.22 -3.04,0.42 -4.93,0.26 -7.47,-0.59 -8.61,6.48 -8.7,12.33 q -0.11,7.01 1.03,11.99"
         id="path15" />
      <path
         stroke="#727881"
         vector-effect="non-scaling-stroke"
         d="m 862.39,489.84 q -3.52,-2.5 -4.39,-7.09 c -5.09,-26.65 -14.93,-54.99 -28.88,-79.07"
         id="path16" />
      <path
         stroke="#727881"
         vector-effect="non-scaling-stroke"
         d="m 814.94,379.45 q 3.77,-4.23 8.47,-7 0.53,-0.32 0.14,-0.8 -16.06,-19.74 -36.05,-36.88"
         id="path17" />
      <path
         stroke="#727881"
         vector-effect="non-scaling-stroke"
         d="m 187.66,380.42 -0.18,3.09 q -0.03,0.5 -0.45,0.77 l -16.51,10.59"
         id="path18" />
      <path
         stroke="#727881"
         vector-effect="non-scaling-stroke"
         d="m 820.77,460.27 q 9,13.02 17.7,26.29 2.85,4.35 3.87,5.35 10.62,10.59 21.78,22.39"
         id="path19" />
      <path
         stroke="#727881"
         vector-effect="non-scaling-stroke"
         d="m 631.81,791.03 c -35.51,3.5 -71.23,0.05 -105.13,-10.74 q -16.2,-5.15 -30.18,-11.03 c -6.88,-2.89 -13.93,-5.58 -21.25,-4.02 -20.2,4.32 -43.51,5.83 -60.65,-8.08 q -6.9,-5.59 -13.83,-11.14 c -3.29,-2.63 -5.27,-4.3 -9.02,-4.33 q -29.35,-0.22 -58.74,-0.21"
         id="path20" />
      <path
         stroke="#727881"
         vector-effect="non-scaling-stroke"
         d="m 170.49,456.34 37.8,0.03"
         id="path21" />
      <path
         stroke="#8c8d93"
         vector-effect="non-scaling-stroke"
         d="m 263.0491,388.8764 a 8.38,8.38 0 0 0 -8.3653,-8.3946 l -24.96,-0.0435 a 8.38,8.38 0 0 0 -8.3946,8.3653 l -0.0583,33.42 a 8.38,8.38 0 0 0 8.3653,8.3946 l 24.96,0.0435 a 8.38,8.38 0 0 0 8.3946,-8.3653 l 0.0583,-33.42"
         id="path22" />
      <path
         stroke="#8c8d93"
         vector-effect="non-scaling-stroke"
         d="m 329.5898,388.532 a 8,8 0 0 0 -7.9861,-8.014 l -32.0599,-0.0559 a 8,8 0 0 0 -8.014,7.986 l -0.0596,34.1399 a 8,8 0 0 0 7.9861,8.014 l 32.0599,0.0559 a 8,8 0 0 0 8.014,-7.986 l 0.0596,-34.1399"
         id="path23" />
      <path
         stroke="#8c8d93"
         vector-effect="non-scaling-stroke"
         d="m 469.47,411.58 c 45.85,-6.27 93.72,5.21 129.89,34.61 q 0.38,0.31 0.65,-0.1 l 24.02,-37.84 a 0.89,0.88 -50.8 0 0 -0.1,-1.07 c -27.46,-28.9 -55.99,-56.84 -84.53,-84.76 a 0.45,0.45 0 0 0 -0.53,-0.07 q -37.26,20.78 -73.84,42.97 -1.13,0.69 -1.38,2.28 -3.54,22.94 -6.95,45.72 a 0.66,0.66 0 0 0 0.83,0.73 q 5.91,-1.64 11.94,-2.47"
         id="path24" />
      <path
         stroke="#727881"
         vector-effect="non-scaling-stroke"
         d="m 745.68,604.33 20.88,1.66 a 1.54,1.53 -72 0 0 1.42,-0.73 q 6.2,-10.02 12.19,-20.56 21.58,-37.95 42.15,-76.35 a 1.25,1.23 -48.2 0 0 -0.06,-1.27 l -16.79,-25.29"
         id="path25" />
      <path
         stroke="#8c8d93"
         vector-effect="non-scaling-stroke"
         d="m 805.47,481.79 -48.3,-68.6 a 1.5,1.5 0 0 0 -1.28,-0.63 l -106.98,4.5 q -0.57,0.02 -0.87,0.5 L 619.3,462.6 a 0.86,0.85 -50.6 0 0 0.1,1.04 c 6.98,7.55 13.86,15.64 19.54,23.97 22.46,32.95 33.96,71.3 33.06,111.36 a 0.96,0.95 -87.5 0 0 0.89,0.98 l 72.79,4.38"
         id="path26" />
      <path
         stroke="#e4e9ec"
         vector-effect="non-scaling-stroke"
         d="m 805.47,481.79 q -6.02,18.67 -9.17,26.71 c -3.35,8.51 -6.51,17.27 -10.28,25.37 -11.1,23.81 -21.16,42.51 -35.28,64.37 q -2.81,4.35 -5.06,6.09"
         id="path27" />
      <path
         stroke="#727881"
         vector-effect="non-scaling-stroke"
         d="m 335.89,639.99 q 2.61,7.59 7.78,16.83 c 36.89,66.02 116.84,93.22 181.09,45.52"
         id="path28" />
      <path
         stroke="#8c8d93"
         vector-effect="non-scaling-stroke"
         d="m 524.76,702.34 q 40.23,-30.95 50.92,-80.59 C 591.14,549.97 546.21,470.57 472,455.77 c -36.39,-7.26 -75.59,4.53 -102.69,30.29 -41.65,39.59 -55.63,99.75 -33.42,153.93"
         id="path29" />
      <path
         stroke="#e4e9ec"
         vector-effect="non-scaling-stroke"
         d="m 524.76,702.34 q -9.12,-1.25 -17.77,-2.13 c -11.26,-1.14 -22.49,-2.95 -33.75,-3.98 q -2.64,-0.25 -5.25,-0.69 -10.9,-1.88 -21.84,-3.52 c -32.92,-4.9 -65.2,-11.92 -92.53,-33.15 q -7.6,-5.9 -10.94,-11.17 -2.56,-4.03 -4.61,-6.05 -0.34,-0.34 -0.41,-0.81 -0.06,-0.37 -0.31,-0.62 -0.08,-0.09 -0.2,-0.05 -0.13,0.05 -0.2,0.18 -0.1,0.21 -0.26,0.04 -0.33,-0.34 -0.8,-0.4"
         id="path30" />
      <path
         stroke="#525762"
         vector-effect="non-scaling-stroke"
         d="m 582.1,541.49 c 4.63,0.1 9.44,-3.07 12.56,-5.79 q 0.39,-0.34 0.37,-0.86 -0.05,-1.91 -0.3,-2.6 -11.11,-31.15 -35.12,-53.85 -2.39,-2.26 -5.06,-3.51 a 2.65,2.63 43.3 0 0 -2.36,0.06 q -5.05,2.7 -8.85,6.96 a 2.04,2.04 0 0 0 -0.34,2.18 q 1.35,3.03 3.93,5.95 c 6.34,7.21 12.51,14.65 17.48,22.82 5.41,8.89 8.55,16.13 13.21,27.2 q 0.21,0.5 0.74,0.54 c 1.39,0.1 2.58,0.87 3.74,0.9"
         id="path31" />
      <path
         stroke="#8c8d93"
         vector-effect="non-scaling-stroke"
         d="m 222.36,500.38 a 6.55,6.55 0 0 0 -6.55,-6.55 h -0.44 a 6.55,6.55 0 0 0 -6.55,6.55 v 59.02 a 6.55,6.55 0 0 0 6.55,6.55 h 0.44 a 6.55,6.55 0 0 0 6.55,-6.55 v -59.02"
         id="path32" />
      <path
         stroke="#8c8d93"
         vector-effect="non-scaling-stroke"
         d="m 222.35,618.33 a 6.42,6.42 0 0 0 -6.42,-6.42 h -0.7 a 6.42,6.42 0 0 0 -6.42,6.42 v 65.88 a 6.42,6.42 0 0 0 6.42,6.42 h 0.7 a 6.42,6.42 0 0 0 6.42,-6.42 v -65.88"
         id="path33" />
      <path
         stroke="#727881"
         vector-effect="non-scaling-stroke"
         d="m 607.66,728.78 -22.28,15.49 q -0.7,0.49 0.13,0.69 c 22.35,5.39 44.83,10.32 67.23,15.58 q 8.76,2.06 13.01,1.51 4.35,-0.56 15.11,-5.09 24.49,-10.32 46.15,-25.68 14.3,-10.15 28.2,-20.42 a 2.32,2.3 71.8 0 0 0.92,-1.85 l -0.01,-77.28 q 0,-0.92 -0.92,-0.99 l -13.8,-1.08"
         id="path34" />
      <path
         stroke="#8c8d93"
         vector-effect="non-scaling-stroke"
         d="m 741.4,629.66 -71.62,-4.36 q -0.49,-0.03 -0.59,0.46 -12.47,62.48 -61.53,103.02"
         id="path35" />
      <path
         stroke="#e4e9ec"
         vector-effect="non-scaling-stroke"
         d="m 741.4,629.66 q -6.89,11.15 -14.03,21.69 c -20.45,30.2 -48.03,54.78 -82.1,68.52 q -8.84,3.57 -15.77,5.12 -6.92,1.56 -21.84,3.79"
         id="path36" />
      <path
         stroke="#8c8d93"
         vector-effect="non-scaling-stroke"
         d="m 454.629,676.3128 a 85.93,82.47 88.1 0 0 79.5757,-88.6171 85.93,82.47 88.1 0 0 -85.2737,-83.1485 85.93,82.47 88.1 0 0 -79.5757,88.6171 85.93,82.47 88.1 0 0 85.2737,83.1485"
         id="path37" />
      <path
         stroke="#8c8d93"
         vector-effect="non-scaling-stroke"
         d="m 446.7,537.67 q -21.12,9.69 -32.59,28.76 c -4.86,8.1 -11.05,20.59 -3.76,29.28 4.48,5.32 12.32,5.9 17.65,1.52 q 2.01,-1.64 4.54,-5.9 c 4.26,-7.17 8.03,-13.97 14.54,-19.26 q 5.54,-4.5 14.35,-9.92 c 18.66,-11.49 5.09,-33.56 -14.73,-24.48"
         id="path38" />
    </g>
    <path
       id="path61"
       style="fill:#1a1c28;stroke-width:0.499999"
       d="M 0,0 V 512 H 512 V 0 Z m 302.93652,72.685979 c 4.22466,0.08197 8.43997,0.350246 12.63087,0.802746 4.19088,0.45249 8.35758,1.088701 12.48437,1.907215 4.12677,0.818517 8.21376,1.819033 12.24609,2.999031 4.03233,1.179989 8.0104,2.540192 11.91796,4.077141 3.90758,1.536957 7.74462,3.251261 11.49708,5.140626 3.75246,1.889375 7.42028,3.953169 10.9873,6.19043 3.56701,2.237266 7.03352,4.647901 10.38477,7.228512 1.51666,1.16667 4.50021,3.6878 8.9502,7.56446 0.12292,0.11015 0.28039,0.17403 0.44531,0.18066 1.86333,0.07 3.70132,0.12659 5.51465,0.16992 2.15311,0.0476 4.27672,0.31377 6.34668,0.77735 2.06996,0.46358 4.08668,1.12409 6.02343,1.96093 1.93675,0.83684 3.79437,1.84935 5.54786,3.01661 1.75348,1.16725 3.40269,2.48949 4.92285,3.94433 1.52015,1.45484 2.91069,3.04261 4.14746,4.74219 1.23676,1.6996 2.31932,3.5106 3.22266,5.41211 0.90331,1.90151 1.62764,3.89349 2.14745,5.9541 0.51982,2.06061 0.83563,4.19031 0.92187,6.36719 0.055,1.39749 0.0531,2.85614 0.15236,4.30176 0.0994,1.44561 0.29933,2.87863 0.75683,4.22362 1.11584,3.285 2.15617,6.58758 3.12012,9.90821 0.96395,3.32062 1.85197,6.65938 2.66406,10.01563 0.81209,3.35624 1.54779,6.73019 2.208,10.12207 0.66022,3.39187 1.2446,6.80102 1.75293,10.22852 0.47,3.17332 0.83725,6.4871 1.10059,9.94043 0.305,3.97832 0.52579,7.89127 0.66308,11.74023 0.13729,3.84895 0.19057,7.63393 0.16016,11.35351 -0.0304,3.71957 -0.14465,7.37464 -0.34277,10.96484 -0.19813,3.5902 -0.47987,7.11534 -0.84569,10.57618 -0.54585,5.15999 -1.31393,10.26403 -2.30373,15.31152 -0.98978,5.04749 -2.20102,10.03865 -3.63477,14.97363 -1.43374,4.93499 -3.09006,9.81326 -4.96775,14.63575 -1.87772,4.82248 -3.97718,9.58883 -6.29885,14.29882 -1.35374,2.74625 -2.80777,5.2709 -4.42089,7.55176 -0.80655,1.14044 -1.65246,2.22061 -2.54591,3.23633 -0.89342,1.01574 -1.83409,1.96708 -2.82909,2.85253 -0.995,0.88548 -2.045,1.70447 -3.15625,2.4541 -1.11124,0.74965 -2.28418,1.42987 -3.52637,2.0381 -1.24219,0.60824 -2.5536,1.14516 -3.9414,1.60644 -1.38781,0.46128 -2.85228,0.8475 -4.40039,1.15625 -0.51999,0.10503 -1.13508,0.0735 -1.73633,0.1416 -0.30063,0.034 -0.59778,0.0929 -0.87794,0.20605 -0.28015,0.11322 -0.54289,0.28099 -0.77539,0.53223 -1.61561,1.74687 -3.29516,3.43367 -5.0332,5.06056 -1.73801,1.62686 -3.53445,3.19393 -5.38281,4.70019 -1.84836,1.50624 -3.74869,2.9519 -5.69531,4.33691 -1.94661,1.38499 -3.93985,2.70954 -5.97267,3.97266 -2.03279,1.26312 -4.10594,2.46485 -6.21289,3.60547 -2.10692,1.14062 -4.24703,2.2198 -6.416,3.23729 -2.16898,1.01751 -4.366,1.97344 -6.58495,2.8672 -2.21898,0.89374 -4.45994,1.72476 -6.71681,2.49414 -0.93333,0.34333 -1.8721,0.67047 -2.81543,0.98047 -4.39499,1.43562 -8.8349,2.66279 -13.30566,3.67968 -4.47077,1.01691 -8.97248,1.82388 -13.49024,2.41993 -4.51776,0.59605 -9.05189,0.98122 -13.58788,1.15429 -4.53601,0.17308 -9.07416,0.13388 -13.59961,-0.11816 -4.52547,-0.25203 -9.03827,-0.71722 -13.52442,-1.39649 -4.48616,-0.67926 -8.94521,-1.57299 -13.36329,-2.68164 -4.41808,-1.10862 -8.79497,-2.43253 -13.11621,-3.97265 -4.32123,-1.54013 -8.58661,-3.29578 -12.78222,-5.26953 -0.48667,-0.22667 -0.9954,-0.29199 -1.52539,-0.19532 -2.44667,0.46001 -4.90347,0.8695 -7.37012,1.2295 -1.90666,0.27875 -3.77893,0.45835 -5.61622,0.5371 -1.83728,0.0788 -3.6393,0.0568 -5.40722,-0.0645 -1.76791,-0.12125 -3.50165,-0.34184 -5.20019,-0.66309 -1.69854,-0.32125 -3.36205,-0.7434 -4.99122,-1.26464 -1.62916,-0.52126 -3.22341,-1.14203 -4.7832,-1.86329 -1.55979,-0.72125 -3.08479,-1.54262 -4.57519,-2.46386 -1.49042,-0.92125 -2.94616,-1.94224 -4.36718,-3.06348 -1.42104,-1.12126 -2.80752,-2.34283 -4.15919,-3.66406 -0.28332,-0.28 -0.75194,-0.41838 -1.40528,-0.41504 -10.64663,0.02 -21.34009,-0.0397 -32.08007,-0.1797 -20.85662,0.0534 -36.45494,0.0548 -46.79492,0.005 -1.30469,-0.007 -2.59709,-0.0825 -3.875,-0.2246 -1.27791,-0.14208 -2.54129,-0.34982 -3.78614,-0.62012 -1.24482,-0.27031 -2.47126,-0.60321 -3.67675,-0.99415 -1.20549,-0.39093 -2.389962,-0.83975 -3.549805,-1.34373 -2.319684,-1.00802 -4.542233,-2.2347 -6.641591,-3.64942 -2.099379,-1.41474 -4.075556,-3.01755 -5.904313,-4.77833 -1.828736,-1.76077 -3.509767,-3.67944 -5.017565,-5.72558 -1.507819,-2.04614 -2.842934,-4.22039 -3.979498,-6.49122 -1.136555,-2.2708 -2.075044,-4.63844 -2.790042,-7.07323 -0.357503,-1.2174 -0.658691,-2.45122 -0.901364,-3.69825 -0.242674,-1.24702 -0.42629,-2.5073 -0.547849,-3.77637 -0.12334,-1.28 -0.185552,-4.6149 -0.185552,-10.00488 -0.0066,-49.70656 -0.0025,-99.41355 0.0107,-149.12012 5.02e-4,-1.38625 0.09169,-2.76478 0.267577,-4.1289 0.175879,-1.36412 0.436216,-2.71368 0.77441,-4.04395 0.338209,-1.33026 0.754589,-2.64111 1.242194,-3.92578 0.487597,-1.28467 1.046833,-2.54317 1.670895,-3.7705 0.624061,-1.22735 1.312957,-2.42377 2.060548,-3.58204 0.747591,-1.15826 1.553898,-2.27898 2.412107,-3.35644 0.858198,-1.07747 1.767758,-2.1108 2.723641,-3.09571 0.955872,-0.9849 1.957422,-1.92113 2.998045,-2.80176 1.620001,-1.37082 3.306009,-2.57326 5.056639,-3.60741 1.75061,-1.03417 3.566011,-1.90016 5.447261,-2.59766 1.88124,-0.6975 3.827982,-1.22609 5.839852,-1.58692 2.01187,-0.36083 4.08894,-0.55396 6.23144,-0.57812 6.48998,-0.0767 12.91385,-0.0499 19.27051,0.0801 0.19665,0.006 0.30984,-0.087 0.33984,-0.28028 0.18938,-1.16937 0.46817,-2.26815 0.83008,-3.29687 0.36192,-1.028719 0.8066,-1.987265 1.32617,-2.874025 0.51957,-0.886755 1.11406,-1.701824 1.77637,-2.44531 0.66232,-0.743485 1.39246,-1.414769 2.18262,-2.013674 0.79016,-0.598907 1.64085,-1.125105 2.54395,-1.578126 0.90309,-0.453015 1.85921,-0.832851 2.86034,-1.138669 1.00114,-0.305821 2.04757,-0.538 3.13184,-0.695316 1.08427,-0.15731 2.20589,-0.240545 3.3584,-0.248045 18.29996,-0.126665 30.88335,-0.11795 37.75,0.0254 0.96916,0.02085 1.92441,0.122255 2.86523,0.30371 0.94083,0.18146 1.8668,0.443075 2.77929,0.785159 0.91251,0.342081 1.81116,0.764871 2.69532,1.267576 0.88417,0.50271 1.75452,1.085689 2.61036,1.749025 0.83083,0.645 1.56766,1.341305 2.20995,2.089844 0.6423,0.74854 1.18981,1.549286 1.64356,2.401365 0.45374,0.852085 0.81293,1.755315 1.07813,2.710946 0.2652,0.95561 0.43602,1.96329 0.51268,3.02246 0.0133,0.2 0.12187,0.30135 0.3252,0.30468 l 10.26562,0.0849 c 0.43427,0.003 0.85577,-0.13537 1.19923,-0.39453 3.22999,-2.43999 6.58698,-4.822183 10.07032,-7.145507 2.50061,-1.668126 5.05664,-3.26267 7.66113,-4.7793 2.60449,-1.516625 5.25734,-2.955315 7.95312,-4.311521 2.69577,-1.35621 5.43449,-2.629545 8.20899,-3.816405 2.77447,-1.186858 5.58516,-2.287311 8.42577,-3.295901 2.84063,-1.00859 5.7113,-1.925673 8.60547,-2.747063 2.89417,-0.821401 5.81192,-1.546612 8.74708,-2.171883 2.93515,-0.625269 5.88704,-1.150086 8.85059,-1.570314 2.96354,-0.420228 5.93859,-0.736128 8.91796,-0.942383 4.22813,-0.29312 8.46186,-0.397378 12.68653,-0.315433 z"
       sodipodi:nodetypes="cccccsssssssccccssssssscccsssccssscsssssssssscsscsssssssccssssssscccsssssssccccsssssssssscccssssssscssscccsssssssccssscssscccccssssssscss" />
    <path
       fill="#1a1c28"
       d="m 93.830006,145.08153 -0.09002,1.545 q -0.015,0.25 -0.225008,0.385 l -8.254998,5.29499 q 0.09996,-5.69499 0.03001,-10.93 c -0.135005,-10.13499 7.284999,-19.16999 16.24,-23.11 3.51,-1.53999 6.88501,-1.62999 9.845,-1.64499 q 14.44001,-0.0549 29.24,0.03 0.39501,0.005 0.41,-0.38499 0.125,-3.71001 0.145,-7.64501 c 0.02,-4.825 3.475,-6.035 7.58001,-6.055 q 15.98499,-0.085 31.97,-0.035 c 5.70499,0.015 7.84499,1.23499 7.94999,7.02499 q 0.065,3.29001 0.0549,6.41501 a 0.64000001,0.64000001 0 0 0 0.63999,0.64001 l 17.01,-0.015 a 0.23500001,0.23500001 0 0 1 0.23501,0.23501 q 0.005,0.30999 -0.315,0.58499 -4.36,3.76 -8.59501,7.77 a 1.775,1.7799999 23.2 0 1 -1.22501,0.49001 q -39.62999,-0.07 -79.35,-0.0651 c -3.095,0 -6.69999,-0.0651 -9.46999,0.525 -9.04,1.915 -14.645004,9.565 -13.824992,18.945 z"
       id="path42"
       style="stroke-width:0.499999" />
    <path
       fill="#fefefe"
       d="m 299.68,177.96653 c -18.085,-14.70001 -42.02001,-20.44 -64.945,-17.305 q -3.01501,0.415 -5.97001,1.23499 a 0.33,0.33 0 0 1 -0.41499,-0.365 q 1.70499,-11.38999 3.47499,-22.85999 0.12501,-0.795 0.69002,-1.14 18.29,-11.09501 36.91999,-21.485 a 0.22499999,0.22499999 0 0 1 0.26499,0.035 c 14.27001,13.96001 28.53502,27.93001 42.265,42.38001 a 0.43999999,0.445 39.2 0 1 0.05,0.535 l -12.01001,18.92 q -0.135,0.20501 -0.325,0.05 z"
       id="path43"
       style="stroke-width:0.499999" />
    <path
       id="path45"
       d="m 393.75,122.25652 q 9.995,8.57 18.025,18.44001 0.195,0.24 -0.0701,0.4 -2.34999,1.38499 -4.235,3.5 -2.91999,-3.315 -5.74999,-6.73001 c -4.68,-5.63999 -9.285,-10.34499 -14.335,-15.18999 a 0.215,0.215 0 0 1 0.145,-0.37 z m 37.44499,77.53501 q -1.76,-1.25 -2.19499,-3.545 c -2.545,-13.32501 -7.46501,-27.495 -14.44,-39.53501 l -7.09,-12.11499 q 1.885,-2.11501 4.235,-3.5 0.265,-0.16 0.0701,-0.4 -8.02999,-9.87001 -18.02499,-18.44001 c 5.91499,-0.63 11.60499,-0.37499 16.765,2.84501 q 8.29,5.165 9.95,14.52999 c 0.455,2.57501 0.33999,5.72001 0.265,8.49001 a 2.97,2.9100001 32.1 0 0 0.34999,1.465 q 2.185,4.045 4.405,8.35 c 5.51001,10.695 9.79,22.435 12.05001,34.46999 q 0.70499,3.775 0.13999,5.425 -1.17,3.39501 -6.48,1.96001 z"
       style="fill:#1a1c28;fill-opacity:1;stroke-width:0.499999" />
    <rect
       fill="#1a1c28"
       x="110.92496"
       y="144.88997"
       transform="rotate(0.1)"
       width="20.860003"
       height="25.09"
       rx="4.1900001"
       id="rect46"
       style="stroke-width:0.499999" />
    <rect
       fill="#1a1c28"
       x="141.0249"
       y="144.84966"
       transform="rotate(0.1)"
       width="24.030001"
       height="25.069998"
       rx="4"
       id="rect47"
       style="stroke-width:0.499999" />
    <path
       id="path50"
       d="m 297.32999,222.72154 c -1.55999,1.35998 -3.965,2.94499 -6.27999,2.89499 -0.58,-0.015 -1.175,-0.40001 -1.87001,-0.44999 q -0.26499,-0.02 -0.37,-0.27001 c -2.32999,-5.53501 -3.89999,-9.155 -6.60499,-13.6 -2.485,-4.08501 -5.57001,-7.805 -8.74001,-11.41001 q -1.28999,-1.45999 -1.96498,-2.97499 a 1.0200001,1.0200001 0 0 1 0.16998,-1.09 q 1.90001,-2.13001 4.42501,-3.48001 a 1.325,1.315 43.3 0 1 1.18,-0.03 q 1.335,0.62501 2.53,1.75501 12.005,11.35 17.56,26.92499 0.125,0.34501 0.14999,1.30001 0.01,0.26 -0.185,0.43 z"
       style="fill:#ffffff;fill-opacity:1;stroke-width:0.499999" />
    <path
       id="path51"
       d="m 402.73499,195.76652 8.395,12.645 a 0.615,0.62499999 41.8 0 1 0.03,0.63501 q -10.28499,19.2 -21.07499,38.17499 -2.995,5.27 -6.09501,10.28001 a 0.765,0.76999999 18 0 1 -0.71,0.365 l -10.44,-0.83 q 1.125,-0.87001 2.53,-3.045 c 7.06,-10.93 12.09001,-20.28 17.64,-32.185 1.88501,-4.05 3.465,-8.43 5.14001,-12.685 q 1.575,-4.01999 4.58499,-13.35501 z m 0,0 q -3.00999,9.33502 -4.58499,13.35501 c -1.675,4.255 -3.25501,8.635 -5.14001,12.685 -5.55,11.905 -10.57999,21.255 -17.63999,32.185 q -1.405,2.17499 -2.53,3.045 l -36.395,-2.19 A 0.475,0.48 2.5 0 1 336,254.35652 c 0.44999,-20.02999 -5.30001,-39.205 -16.53001,-55.67999 -2.84,-4.165 -6.27999,-8.21001 -9.77,-11.98501 a 0.425,0.43 39.4 0 1 -0.05,-0.52 l 14.37,-22.51999 q 0.15,-0.23999 0.43499,-0.25 l 53.49001,-2.25 a 0.74999999,0.74999999 0 0 1 0.64,0.315 z"
       style="fill:#fdfefe;fill-opacity:1;stroke-width:0.499999" />
    <path
       fill="#1a1c28"
       d="m 227.3145,293.02794 a 42.965,41.235 88.1 0 1 -42.63685,-41.57425 42.965,41.235 88.1 0 1 39.78785,-44.30856 42.965,41.235 88.1 0 1 42.63684,41.57425 42.965,41.235 88.1 0 1 -39.78784,44.30856 z M 223.35,223.70653 q -10.56,4.845 -16.295,14.38 c -2.43,4.05 -5.525,10.29499 -1.88001,14.64001 2.24001,2.65999 6.16001,2.94999 8.82501,0.75998 q 1.005,-0.81999 2.27,-2.95 c 2.13,-3.58499 4.015,-6.98498 7.26999,-9.62999 q 2.77,-2.25001 7.175,-4.96 c 9.33001,-5.74499 2.54501,-16.77999 -7.36499,-12.24 z"
       id="path52"
       style="stroke-width:0.499999" />
    <path
       fill="#fefefe"
       d="m 223.35,223.70653 c 9.91,-4.53999 16.695,6.49501 7.36499,12.24 q -4.405,2.70999 -7.175,4.96 c -3.25499,2.64501 -5.13999,6.045 -7.26999,9.62999 q -1.265,2.13001 -2.27,2.95 c -2.665,2.19001 -6.585,1.90001 -8.82501,-0.75998 -3.64499,-4.34502 -0.54999,-10.59001 1.88001,-14.64001 q 5.735,-9.535 16.295,-14.38 z"
       id="path53"
       style="stroke-width:0.499999" />
    <path
       id="path55"
       d="m 370.69999,269.70153 6.9,0.54 q 0.46,0.035 0.46,0.49499 l 0.005,38.64001 a 1.16,1.1500001 71.8 0 1 -0.46,0.925 q -6.95001,5.135 -14.1,10.20999 -10.83001,7.68 -23.07501,12.84001 -5.38,2.26499 -7.55499,2.545 -2.125,0.27499 -6.50501,-0.755 c -11.2,-2.63 -22.43999,-5.09501 -33.61498,-7.79 q -0.41501,-0.10006 -0.0651,-0.345 l 11.14001,-7.745 q 7.45999,-1.115 10.91999,-1.895 3.465,-0.77501 7.885,-2.56001 c 17.035,-6.87 30.82501,-19.15999 41.05,-34.26 q 3.57001,-5.26999 7.015,-10.84499 z m 0,0 q -3.44498,5.575 -7.01499,10.84499 c -10.225,15.10001 -24.015,27.39 -41.05,34.26 q -4.42,1.785 -7.885,2.56001 -3.46001,0.78 -10.92001,1.895 24.53001,-20.27 30.765,-51.51 0.05,-0.245 0.29501,-0.23 z"
       style="fill:#fefefe;fill-opacity:1;stroke-width:0.499999" />
    <path
       id="path56"
       d="m 167.945,274.86653 q 0.235,0.03 0.39999,0.19999 0.08,0.085 0.13001,-0.02 0.035,-0.065 0.1,-0.09 0.0599,-0.02 0.1,0.025 0.125,0.125 0.155,0.31 0.035,0.235 0.205,0.405 1.025,1.01001 2.305,3.025 1.67,2.63501 5.47,5.585 c 13.665,10.61508 29.805,14.12508 46.265,16.57506 q 5.47,0.82 10.92001,1.76001 1.305,0.21999 2.62498,0.34499 c 5.63001,0.515 11.24501,1.42001 16.87501,1.99001 q 4.32499,0.44 8.885,1.065 c -32.125,23.84999 -72.1,10.24999 -90.545,-22.76 q -2.585,-4.62001 -3.89,-8.41501 z m 94.43499,31.175 q -4.56,-0.625 -8.885,-1.065 c -5.63,-0.57 -11.245,-1.47501 -16.875,-1.99 q -1.31999,-0.125 -2.62499,-0.345 -5.45,-0.94 -10.92,-1.76 c -16.46,-2.44999 -32.6,-5.95999 -46.26501,-16.57499 q -3.8,-2.95001 -5.47,-5.58501 -1.28,-2.015 -2.30499,-3.025 -0.17,-0.17001 -0.20501,-0.40501 -0.03,-0.18499 -0.15499,-0.30999 -0.0401,-0.045 -0.1,-0.025 -0.0651,0.025 -0.1,0.09 -0.05,0.10503 -0.13,0.02 -0.16499,-0.17 -0.4,-0.20001 c -11.105,-27.09005 -4.115,-57.17006 16.71,-76.96506 13.55,-12.87999 33.15,-18.77501 51.345,-15.145 37.105,7.4 59.56999,47.1 51.84001,82.99001 q -5.345,24.81999 -25.46001,40.295 z M 227.3145,293.02794 a 42.965,41.235 88.1 0 0 39.78784,-44.30856 42.965,41.235 88.1 0 0 -42.63684,-41.57425 42.965,41.235 88.1 0 0 -39.78785,44.30856 42.965,41.235 88.1 0 0 42.63685,41.57425 z"
       style="fill:#ffffff;fill-opacity:1;stroke-width:0.499999" />
    <path
       id="path57"
       d="m 166.505,325.61153 q 14.695,-0.005 29.37,0.10503 c 1.875,0.015 2.86499,0.84999 4.50999,2.16499 q 3.465,2.77499 6.915,5.57 c 8.57001,6.95499 20.22501,6.20001 30.325,4.04 3.66,-0.78 7.185,0.56501 10.625,2.01 q 6.99,2.94 15.09,5.515 c 16.95001,5.395 34.81001,7.11999 52.565,5.37 q -0.28,0.5 0.22,0.525 c 1.725,0.085 3.45001,0.1 5.16001,0.33 q 4.045,0.535 8.09999,0.975 4.78001,0.52 9.55001,1.07 c 2.52,0.28999 5.75999,1.04 8.71501,1.245 0.84998,0.055 1.56999,0.26 2.395,0.415 a 0.59999999,0.59999999 0 0 1 0.37999,0.24499 q 0.33499,0.49501 0.80999,0.57501 -1.4,0.51499 -2.81499,0.98 c -35.16,11.485 -73.205,9.60499 -106.77,-6.185 q -0.73001,-0.34 -1.525,-0.195 -3.67,0.69 -7.37,1.23 -22.88,3.345 -39.1,-12.51 -0.425,-0.42 -1.40501,-0.415 -15.97,0.03 -32.08,-0.18 -0.56999,-2.49001 -0.51499,-5.995 c 0.045,-2.925 0.615,-6.46001 4.35,-6.165 0.945,0.08 1.59999,-0.0201 2.465,-0.13 q 0.065,-0.01 0.095,-0.0651 0.0651,-0.135 0.11,-0.24999 0.05,-0.11 -0.05,-0.18501 -0.0549,-0.04 -0.11999,-0.0899 z M 414.56,156.71152 c 6.97499,12.04001 11.895,26.21 14.44,39.53501 q 0.43499,2.295 2.19499,3.545 l 0.86501,12.23 q -5.58,-5.9 -10.89001,-11.195 -0.50999,-0.5 -1.93499,-2.675 -4.35,-6.635 -8.85,-13.145 0.375,-0.375 0.055,-0.885 -0.48499,-0.775 -0.28999,-1.61501 2.20999,-9.6 3.16499,-19.39999 0.0599,-0.585 -0.0651,-2.71501 -0.13499,-2.34499 1.31001,-3.68 z m -310.41501,26.34501 -18.899987,-0.015 0.015,-30.73499 8.254999,-5.295 q 0.210003,-0.135 0.224997,-0.385 l 0.09002,-1.545 q 0.669993,-0.735 0.725,-2.19499 c 0.110005,-2.925 4.150006,-3.89501 6.440001,-3.45002 2.76001,0.53501 3.13,2.34501 3.12499,4.99001 q -0.01,6.71999 0.045,13.445 c 0.0651,8.295 -0.095,16.765 -0.0201,25.185 z m 247.09,172.71 q -0.475,-0.08 -0.80999,-0.57501 a 0.59999999,0.59999999 0 0 0 -0.37999,-0.245 c -0.82501,-0.15499 -1.54502,-0.35999 -2.395,-0.41499 -2.95502,-0.205 -6.19501,-0.95501 -8.71501,-1.245 q -4.77,-0.55 -9.55001,-1.07 -4.05499,-0.44001 -8.09999,-0.975 c -1.71,-0.23 -3.43501,-0.245 -5.16001,-0.33 q -0.5,-0.025 -0.22,-0.525 18.23501,-2.26 35.335,-8.86 c 13.425,-5.18001 25.575,-12.98001 36.1,-22.81 q 3.23,-3.015 6.155,-5.885 a 2.505,2.505 0 0 1 1.4,-0.7 q 2.75001,-0.40501 5.715,-1.015 c 7.86001,-1.61999 11.89001,-6.565 15.34,-13.38 q 9.54501,-18.86 13.95001,-38.985 c 3.19999,-14.58501 3.52499,-30.205 2.625,-45.06 q -0.02,-0.365 -0.465,-1.67 l -0.86501,-12.23 q 5.31002,1.435 6.48,-1.96001 0.565,-1.65 -0.13999,-5.425 c -2.26,-12.03499 -6.54001,-23.77499 -12.05,-34.46999 q -2.22001,-4.305 -4.40501,-8.35 a 2.97,2.9100001 32.1 0 1 -0.34999,-1.465 c 0.075,-2.77 0.19,-5.915 -0.26499,-8.49001 q -1.66002,-9.36499 -9.95,-14.52999 c -5.16002,-3.22 -10.85001,-3.47501 -16.76501,-2.84501 l -6.22,0.05 a 0.215,0.215 0 0 0 -0.145,0.37001 c 5.05,4.845 9.65501,9.54999 14.33499,15.18999 q 2.83,3.415 5.75001,6.73 l 7.09,12.11499 q -1.445,1.33501 -1.31,3.68 0.125,2.13001 0.065,2.71501 -0.955,9.8 -3.165,19.39999 -0.195,0.84001 0.29001,1.61501 0.31999,0.51 -0.0551,0.885 -3.8999,-5.465 -7.67489,-11.005 c -5.25002,-7.72 -10.52502,-15.04501 -15.83501,-22.535 -0.49999,-0.7 -0.72,-2.005 -0.795,-2.865 q -0.78501,-9.09501 -1.89,-18.15999 -0.145,-1.19001 -0.88999,-2.11501 c -5.79008,-7.19996 -10.63509,-14.88496 -16.03508,-22.34497 -1.19501,-1.655 -2.55501,-2.815 -4.185,-3.81 q -4.785,-2.929998 -10.41,-5.424998 -32.30501,-14.324993 -67.22,-10.065 c -14.14,1.725 -28.015,6.205 -40.76501,12.539999 q -1.93,0.959999 -3.765,2.044999 -0.77,0.455 -0.13499,1.09 1.085,1.08 1.58,2.5 a 0.37999999,0.37999999 0 0 0 0.49499,0.23 q 16.7,-6.584998 34.29501,-10.184997 0.64,-0.130001 0.24499,0.389999 -2.71999,3.57 -5.54999,7.409998 -0.67002,0.91 -1.97502,1.425 -6.31998,2.49001 -14.06498,6.4 -13.90501,7.015 -27.075,15.32999 c -1.59001,1.00001 -3.38501,2.06501 -5.475,1.81501 q -5.56501,-0.665 -11.18,-0.55 c -1.325,0.025 -2.04001,0.54 -2.92001,1.41 q -23.04496,22.68499 -30.69497,54.16999 a 0.54,0.54 0 0 1 -0.52499,0.415 l -73.79501,-0.06 c -0.075,-8.42 0.0849,-16.89 0.0201,-25.18501 q -0.055,-6.725 -0.045,-13.44499 c 0.005,-2.645 -0.36499,-4.455 -3.12499,-4.99 -2.290006,-0.44499 -6.329996,0.52499 -6.44,3.45 q -0.05505,1.45999 -0.725001,2.195 c -0.820001,-9.37999 4.784992,-17.03 13.825001,-18.945 2.76999,-0.59 6.37499,-0.52501 9.46998,-0.52501 q 39.72001,-0.005 79.35001,0.0651 a 1.775,1.7799999 23.2 0 0 1.22499,-0.49 q 4.235,-4.01 8.595,-7.76999 0.32001,-0.27501 0.31501,-0.58501 a 0.23500001,0.23500001 0 0 0 -0.235,-0.235 l -17.01,0.015 a 0.64000001,0.64000001 0 0 1 -0.64,-0.64001 q 0.01,-3.125 -0.0549,-6.415 c -0.10503,-5.78999 -2.245,-7.01 -7.95,-7.025 q -15.98501,-0.05 -31.97,0.035 c -4.10501,0.02 -7.56,1.23 -7.58,6.05501 q -0.0201,3.93499 -0.145,7.64499 -0.015,0.39001 -0.41,0.38501 -14.8,-0.085 -29.24001,-0.03 c -2.95998,0.015 -6.33498,0.10503 -9.84499,1.645 -8.954999,3.93999 -16.374993,12.975 -16.239988,23.10999 q 0.07005,5.23501 -0.03001,10.93002 l -0.015,30.73498 c -0.215002,38.06502 0.01997,76.14001 0.135004,114.205 0.04005,12.28001 9.809996,24.48501 21.684984,27.50501 q 2.99001,0.76501 9.935,0.81 c 16.48499,0.11 33.01499,0.18001 49.505,0.05 q 0.0651,0.05 0.12,0.0899 0.10006,0.075 0.05,0.185 -0.045,0.11499 -0.11,0.25 -0.03,0.055 -0.095,0.0651 c -0.865,0.11 -1.52,0.21 -2.465,0.13 -3.73499,-0.295 -4.305,3.24 -4.35,6.165 q -0.0549,3.50499 0.51501,5.99498 -31.28501,0.08 -46.79501,0.005 C 92.500058,338.39643 74.650055,320.42645 72.705056,300.12144 q -0.185,-1.92001 -0.185,-10.005 -0.0099,-74.56 0.0099,-149.12 c 0.005,-11.08999 5.825002,-21.66 14.150002,-28.70499 q 9.719993,-8.22501 22.574992,-8.37001 9.735,-0.115 19.27,0.08 0.29501,0.0106 0.34,-0.28 c 1.515,-9.355003 8.79,-14.230003 18.01,-14.290002 q 27.44999,-0.19 37.75,0.025 5.81499,0.124999 10.95,4.105001 4.98499,3.869998 5.445,10.225001 0.02,0.3 0.32499,0.30499 l 10.265,0.085 a 1.98,1.95 26.4 0 0 1.20001,-0.395 q 4.84499,-3.66 10.07,-7.145001 c 20.005,-13.344997 43.53499,-21.985006 67.37001,-23.634999 33.82499,-2.345006 68.02498,7.385008 94.835,28.03 q 2.27499,1.75 8.94999,7.565 a 0.71,0.71 0 0 0 0.44499,0.18 q 2.79501,0.10503 5.515,0.16999 c 17.22501,0.38001 32.59001,14.76 33.28001,32.17501 0.11,2.79499 -0.005,5.835 0.91,8.525 q 6.695,19.71 9.745,40.275 0.70499,4.75999 1.1,9.93999 1.83,23.87 -0.365,44.635 -3.275,30.96001 -17.20501,59.22001 c -5.41499,10.985 -12.43499,18.42499 -24.81998,20.89499 -1.04001,0.21001 -2.46001,-0.12499 -3.39001,0.88001 -12.92501,13.975 -29.96,24.12 -48.01501,30.27499 z M 131.52454,149.30973 a 4.19,4.19 0 0 0 -4.18264,-4.1973 l -12.48,-0.0218 a 4.19,4.19 0 0 0 -4.1973,4.18265 l -0.0292,16.71 a 4.19,4.19 0 0 0 4.18266,4.1973 l 12.47999,0.0217 a 4.19,4.19 0 0 0 4.1973,-4.18265 z m 33.27035,-0.1722 a 4,4 0 0 0 -3.99305,-4.007 l -16.02994,-0.028 a 4,4 0 0 0 -4.00701,3.993 l -0.0298,17.06995 a 4,4 0 0 0 3.99305,4.00699 l 16.02996,0.028 a 4,4 0 0 0 4.00699,-3.993 z"
       style="fill:#ffffff;fill-opacity:1;stroke-width:0.499999" />
    <path
       style="fill:#1a1c28;fill-opacity:1;stroke:#e4e9ec;stroke-width:0.499999;stroke-opacity:0"
       d="m 93.830006,145.08153 v 37.96682 l -8.585003,-0.007 0.015,-30.73501 z"
       id="path58" />
    <path
       style="fill:#1a1c28;fill-opacity:1;stroke:#e4e9ec;stroke-width:0.509601;stroke-opacity:0"
       d="m 93.823888,145.09658 v 39.49517 l -8.572767,-0.007 0.015,-31.97225 z"
       id="path59" />
    <text
       xml:space="preserve"
       id="text59"
       style="font-style:normal;font-variant:normal;font-weight:normal;font-stretch:normal;font-size:96px;font-family:Broadway;-inkscape-font-specification:'Broadway, Normal';font-variant-ligatures:normal;font-variant-caps:normal;font-variant-numeric:normal;font-variant-east-asian:normal;white-space:pre;shape-inside:url(#rect59);fill:#ffffff;fill-opacity:1;stroke:#e4e9ec;stroke-opacity:0"
       transform="matrix(0.70342174,0,0,0.84460052,-24.021272,-338.79304)"
       inkscape:transform-center-x="-1.7855275"
       inkscape:transform-center-y="-52.67306"><tspan
         x="78"
         y="942.8493"
         id="tspan2">FOOTBALIZA</tspan></text>
    <path
       id="rect1"
       style="fill:#1a1c28;stroke-opacity:0"
       d="M 93.823891,184.59175 H 162.70332 V 312.4673 H 93.823891 Z m 13.791119,76.23477 h 0.34999 c 1.77833,0 3.21,1.43166 3.21,3.20999 v 32.94001 c 0,1.77834 -1.43167,3.20999 -3.21,3.20999 h -0.34999 c -1.77836,0 -3.21001,-1.43165 -3.21001,-3.20999 v -32.94001 c 0,-1.77833 1.43165,-3.20999 3.21001,-3.20999 z m 0.07,-59.03999 h 0.22 c 1.81434,0 3.27499,1.46065 3.27499,3.27499 v 29.51 c 0,1.81435 -1.46065,3.27499 -3.27499,3.27499 h -0.22 c -1.81435,0 -3.275,-1.46064 -3.275,-3.27499 v -29.51 c 0,-1.81434 1.46065,-3.27499 3.275,-3.27499 z m 302.69997,-16.78 q 4.5,6.51 8.85001,13.145 1.42499,2.175 1.93499,2.675 5.31,5.295 10.89001,11.195 0.44499,1.305 0.46499,1.67 c 0.89999,14.855 0.575,30.47499 -2.625,45.06 q -4.405,20.125 -13.95001,38.985 c -3.44999,6.815 -7.47999,11.76001 -15.34,13.38 q -2.96499,0.60999 -5.715,1.015 a 2.505,2.505 0 0 0 -1.4,0.7 q -2.925,2.87 -6.15499,5.885 c -10.525,9.82999 -22.675,17.62999 -36.10001,22.81 q -17.09999,6.6 -35.33499,8.86 c -17.755,1.74999 -35.615,0.025 -52.56501,-5.37 q -8.09999,-2.575 -15.09,-5.515 c -3.43999,-1.445 -6.965,-2.79 -10.625,-2.01 -10.09999,2.16001 -21.75498,2.91499 -30.32499,-4.04 q -3.45001,-2.79501 -6.91501,-5.57 c -1.645,-1.315 -2.63499,-2.15 -4.50999,-2.165 q -14.675,-0.11 -29.37,-0.10502 c -16.49,0.13 -33.02001,0.0599 -49.50501,-0.05 q -6.94499,-0.045 -9.93499,-0.81001 c -11.874995,-3.02 -21.644997,-15.22501 -21.684991,-27.505 -0.115002,-38.065 -0.350005,-76.14 -0.135004,-114.205 l 18.899985,0.015 73.79501,0.06 a 0.54,0.54 0 0 0 0.52499,-0.415 q 7.65001,-31.48499 30.69501,-54.16999 c 0.87999,-0.87 1.595,-1.385 2.92,-1.41001 q 5.615,-0.11499 11.17999,0.55002 c 2.09001,0.24999 3.88501,-0.81502 5.47501,-1.81501 q 13.17,-8.315 27.075,-15.33 7.74499,-3.91 14.065,-6.4 1.305,-0.515 1.975,-1.42501 2.82999,-3.839991 5.55,-7.409991 0.39499,-0.52 -0.245,-0.39 -17.59501,3.6 -34.29501,10.185001 a 0.37999999,0.37999999 0 0 1 -0.49498,-0.23001 q -0.49501,-1.41999 -1.58001,-2.49999 -0.63501,-0.635 0.13499,-1.09 1.835,-1.085 3.76501,-2.045002 c 12.75,-6.334999 26.62501,-10.814998 40.76499,-12.539999 q 34.91501,-4.259997 67.22001,10.065 5.625,2.494999 10.40999,5.425001 c 1.63001,0.995 2.99001,2.155 4.185,3.81 5.40001,7.46 10.24501,15.145 16.03502,22.34501 q 0.745,0.92499 0.88999,2.11499 1.10499,9.06499 1.89,18.16001 c 0.075,0.85999 0.29501,2.16499 0.795,2.86499 5.30999,7.49 10.58499,14.81499 15.83501,22.53499 q 3.77498,5.54 7.67499,11.00501 z M 234.735,160.66153 c 22.92499,-3.135 46.86,2.60499 64.945,17.305 q 0.19,0.155 0.32501,-0.05 l 12.00999,-18.92 a 0.43999999,0.445 39.2 0 0 -0.05,-0.535 c -13.72998,-14.45 -27.99499,-28.42001 -42.265,-42.38001 a 0.22499999,0.22499999 0 0 0 -0.26499,-0.035 q -18.62999,10.39001 -36.91999,21.48501 -0.56501,0.34499 -0.69002,1.14 -1.77,11.47 -3.47499,22.85999 a 0.33,0.33 0 0 0 0.415,0.365 q 2.95499,-0.82 5.97,-1.235 z m 138.105,96.375 10.44,0.83 a 0.765,0.76999999 18 0 0 0.70999,-0.365 q 3.10001,-5.01001 6.09501,-10.28001 10.79,-18.97499 21.075,-38.17499 a 0.615,0.62499999 41.8 0 0 -0.03,-0.63501 l -8.39502,-12.645 -24.15,-34.29999 a 0.74999999,0.74999999 0 0 0 -0.63999,-0.315 l -53.49001,2.25 q -0.285,0.01 -0.435,0.25 l -14.36999,22.51999 a 0.425,0.43 39.4 0 0 0.05,0.52 c 3.49,3.775 6.93,7.82001 9.77,11.98501 11.23,16.47499 16.98,35.65 16.53,55.67999 a 0.475,0.48 2.5 0 0 0.445,0.49001 z m -204.895,17.83 q 1.305,3.795 3.88999,8.415 c 18.44501,33.01 58.42001,46.61 90.545,22.76 Q 282.495,290.56653 287.84,265.74654 c 7.72999,-35.89001 -14.73501,-75.59002 -51.84001,-82.99001 -18.195,-3.63001 -37.795,2.26501 -51.345,15.14499 C 163.83,217.69652 156.84,247.77653 167.945,274.86653 Z m 123.105,-49.25 c 2.31499,0.05 4.72,-1.53501 6.27999,-2.89499 q 0.195,-0.17001 0.185,-0.43001 -0.025,-0.955 -0.14999,-1.30001 -5.555,-15.57499 -17.56,-26.92499 -1.195,-1.13 -2.53,-1.755 a 1.325,1.315 43.3 0 0 -1.18,0.03 q -2.525,1.34999 -4.42501,3.48 a 1.0200001,1.0200001 0 0 0 -0.16998,1.09 q 0.67499,1.51501 1.96498,2.975 c 3.17,3.605 6.25501,7.325 8.74001,11.41001 2.705,4.44499 4.275,8.065 6.60499,13.59999 q 0.10503,0.25 0.37,0.27001 c 0.69501,0.05 1.29001,0.435 1.87001,0.44999 z m -179.86999,-20.555 a 3.275,3.275 0 0 0 -3.27501,-3.27499 h -0.22 a 3.275,3.275 0 0 0 -3.275,3.27499 v 29.51 a 3.275,3.275 0 0 0 3.275,3.275 h 0.22 a 3.275,3.275 0 0 0 3.27501,-3.275 z m -0.005,58.97499 a 3.2100001,3.2100001 0 0 0 -3.21,-3.20999 h -0.35 a 3.2100001,3.2100001 0 0 0 -3.21,3.20999 v 32.94001 a 3.2100001,3.2100001 0 0 0 3.21,3.21 h 0.35 a 3.2100001,3.2100001 0 0 0 3.21,-3.21 z m 192.65499,55.22501 -11.14,7.745 q -0.34999,0.24499 0.0651,0.345 c 11.175,2.69499 22.415,5.16 33.61501,7.79 q 4.37999,1.02999 6.50499,0.755 2.175,-0.28001 7.555,-2.545 12.24501,-5.16001 23.075,-12.84001 7.15,-5.07499 14.1,-10.20999 a 1.16,1.1500001 71.8 0 0 0.46,-0.925 l -0.005,-38.64001 q 0,-0.46 -0.46,-0.49499 l -6.90001,-0.54 -35.80999,-2.18 q -0.245,-0.015 -0.29498,0.23 -6.23501,31.24 -30.76502,51.51 z" />
  </g>
</svg>
